<mxfile host="app.diagrams.net" agent="Mozilla/5.0 (Windows NT 10.0; Win64; x64) AppleWebKit/537.36 (KHTML, like Gecko) Chrome/139.0.0.0 Safari/537.36" version="28.2.0">
  <diagram name="Page-1" id="zfbpcotMKmYrhhUjiK6f">
    <mxGraphModel dx="2916" dy="1051" grid="1" gridSize="10" guides="1" tooltips="1" connect="1" arrows="1" fold="1" page="1" pageScale="1" pageWidth="850" pageHeight="1100" math="0" shadow="0">
      <root>
        <mxCell id="0" />
        <mxCell id="1" parent="0" />
        <mxCell id="lb5H_JjfW28el9cgxgro-2" value="" style="rounded=0;whiteSpace=wrap;html=1;" vertex="1" parent="1">
          <mxGeometry x="680" y="390" width="960" height="930" as="geometry" />
        </mxCell>
        <mxCell id="lb5H_JjfW28el9cgxgro-3" value="Visualization POC" style="rounded=0;whiteSpace=wrap;html=1;fontStyle=1" vertex="1" parent="1">
          <mxGeometry x="1000" y="390" width="315" height="60" as="geometry" />
        </mxCell>
        <mxCell id="lb5H_JjfW28el9cgxgro-4" value="PowerBI Service" style="rounded=0;whiteSpace=wrap;html=1;fontStyle=1" vertex="1" parent="1">
          <mxGeometry x="1315" y="390" width="325" height="60" as="geometry" />
        </mxCell>
        <mxCell id="lb5H_JjfW28el9cgxgro-5" value="" style="rounded=0;whiteSpace=wrap;html=1;" vertex="1" parent="1">
          <mxGeometry x="1000" y="450" width="315" height="870" as="geometry" />
        </mxCell>
        <mxCell id="lb5H_JjfW28el9cgxgro-6" style="edgeStyle=orthogonalEdgeStyle;rounded=0;orthogonalLoop=1;jettySize=auto;html=1;entryX=1;entryY=0.5;entryDx=0;entryDy=0;" edge="1" parent="1" source="lb5H_JjfW28el9cgxgro-8" target="lb5H_JjfW28el9cgxgro-20">
          <mxGeometry relative="1" as="geometry" />
        </mxCell>
        <mxCell id="lb5H_JjfW28el9cgxgro-7" style="edgeStyle=orthogonalEdgeStyle;rounded=0;orthogonalLoop=1;jettySize=auto;html=1;" edge="1" parent="1" source="lb5H_JjfW28el9cgxgro-8" target="lb5H_JjfW28el9cgxgro-25">
          <mxGeometry relative="1" as="geometry" />
        </mxCell>
        <mxCell id="lb5H_JjfW28el9cgxgro-8" value="Select one or multiple Schemas&amp;nbsp;" style="whiteSpace=wrap;html=1;rounded=0;" vertex="1" parent="1">
          <mxGeometry x="1089.25" y="640" width="137.5" height="60" as="geometry" />
        </mxCell>
        <mxCell id="lb5H_JjfW28el9cgxgro-11" value="" style="edgeStyle=orthogonalEdgeStyle;rounded=0;orthogonalLoop=1;jettySize=auto;html=1;exitX=1;exitY=0.5;exitDx=0;exitDy=0;entryX=0;entryY=0.5;entryDx=0;entryDy=0;entryPerimeter=0;" edge="1" parent="1" source="lb5H_JjfW28el9cgxgro-31" target="lb5H_JjfW28el9cgxgro-18">
          <mxGeometry relative="1" as="geometry">
            <mxPoint x="1240" y="1140" as="sourcePoint" />
            <mxPoint x="1385.75" y="1139.5" as="targetPoint" />
          </mxGeometry>
        </mxCell>
        <mxCell id="lb5H_JjfW28el9cgxgro-12" value="Report editor" style="edgeLabel;html=1;align=center;verticalAlign=middle;resizable=0;points=[];" vertex="1" connectable="0" parent="lb5H_JjfW28el9cgxgro-11">
          <mxGeometry x="-0.1293" y="-2" relative="1" as="geometry">
            <mxPoint x="15" y="-2" as="offset" />
          </mxGeometry>
        </mxCell>
        <mxCell id="lb5H_JjfW28el9cgxgro-18" value="Save Sales Report" style="whiteSpace=wrap;html=1;rounded=0;" vertex="1" parent="1">
          <mxGeometry x="1395.75" y="1110" width="120" height="60" as="geometry" />
        </mxCell>
        <mxCell id="lb5H_JjfW28el9cgxgro-19" value="Data Workbench" style="rounded=0;whiteSpace=wrap;html=1;fontStyle=1" vertex="1" parent="1">
          <mxGeometry x="680" y="390" width="320" height="60" as="geometry" />
        </mxCell>
        <mxCell id="lb5H_JjfW28el9cgxgro-20" value="GetSchemas" style="whiteSpace=wrap;html=1;rounded=0;" vertex="1" parent="1">
          <mxGeometry x="774.88" y="640" width="137.5" height="60" as="geometry" />
        </mxCell>
        <mxCell id="lb5H_JjfW28el9cgxgro-21" value="GetDataSets" style="whiteSpace=wrap;html=1;rounded=0;" vertex="1" parent="1">
          <mxGeometry x="774.88" y="820" width="137.5" height="60" as="geometry" />
        </mxCell>
        <mxCell id="lb5H_JjfW28el9cgxgro-35" style="edgeStyle=orthogonalEdgeStyle;rounded=0;orthogonalLoop=1;jettySize=auto;html=1;entryX=0.5;entryY=0;entryDx=0;entryDy=0;" edge="1" parent="1" source="lb5H_JjfW28el9cgxgro-23" target="lb5H_JjfW28el9cgxgro-1">
          <mxGeometry relative="1" as="geometry" />
        </mxCell>
        <mxCell id="lb5H_JjfW28el9cgxgro-23" value="Build a Sales Report" style="rounded=1;whiteSpace=wrap;html=1;" vertex="1" parent="1">
          <mxGeometry x="1097.5" y="470" width="120" height="60" as="geometry" />
        </mxCell>
        <mxCell id="lb5H_JjfW28el9cgxgro-37" style="edgeStyle=orthogonalEdgeStyle;rounded=0;orthogonalLoop=1;jettySize=auto;html=1;exitX=0.5;exitY=1;exitDx=0;exitDy=0;entryX=0.5;entryY=0;entryDx=0;entryDy=0;" edge="1" parent="1" source="lb5H_JjfW28el9cgxgro-25" target="lb5H_JjfW28el9cgxgro-28">
          <mxGeometry relative="1" as="geometry" />
        </mxCell>
        <mxCell id="lb5H_JjfW28el9cgxgro-25" value="Make the relationship between multiple Schemas" style="whiteSpace=wrap;html=1;rounded=0;" vertex="1" parent="1">
          <mxGeometry x="1089.25" y="730" width="137.5" height="60" as="geometry" />
        </mxCell>
        <mxCell id="lb5H_JjfW28el9cgxgro-27" style="edgeStyle=orthogonalEdgeStyle;rounded=0;orthogonalLoop=1;jettySize=auto;html=1;entryX=1;entryY=0.5;entryDx=0;entryDy=0;" edge="1" parent="1" source="lb5H_JjfW28el9cgxgro-28" target="lb5H_JjfW28el9cgxgro-21">
          <mxGeometry relative="1" as="geometry" />
        </mxCell>
        <mxCell id="lb5H_JjfW28el9cgxgro-32" value="" style="edgeStyle=orthogonalEdgeStyle;rounded=0;orthogonalLoop=1;jettySize=auto;html=1;" edge="1" parent="1" target="lb5H_JjfW28el9cgxgro-31">
          <mxGeometry relative="1" as="geometry">
            <mxPoint x="1158.3000000000002" y="1080" as="sourcePoint" />
          </mxGeometry>
        </mxCell>
        <mxCell id="lb5H_JjfW28el9cgxgro-78" value="" style="edgeStyle=orthogonalEdgeStyle;rounded=0;orthogonalLoop=1;jettySize=auto;html=1;" edge="1" parent="1" source="lb5H_JjfW28el9cgxgro-28" target="lb5H_JjfW28el9cgxgro-77">
          <mxGeometry relative="1" as="geometry" />
        </mxCell>
        <mxCell id="lb5H_JjfW28el9cgxgro-28" value="Select DataSets that filter by Schemas of DataModel" style="whiteSpace=wrap;html=1;rounded=0;" vertex="1" parent="1">
          <mxGeometry x="1092.88" y="820" width="130.75" height="60" as="geometry" />
        </mxCell>
        <mxCell id="lb5H_JjfW28el9cgxgro-36" style="edgeStyle=orthogonalEdgeStyle;rounded=0;orthogonalLoop=1;jettySize=auto;html=1;entryX=0.5;entryY=0;entryDx=0;entryDy=0;" edge="1" parent="1" source="lb5H_JjfW28el9cgxgro-1" target="lb5H_JjfW28el9cgxgro-8">
          <mxGeometry relative="1" as="geometry" />
        </mxCell>
        <mxCell id="lb5H_JjfW28el9cgxgro-1" value="Make a DataModel that include multiple Schemas" style="rounded=0;whiteSpace=wrap;html=1;" vertex="1" parent="1">
          <mxGeometry x="1097.5" y="550" width="120" height="60" as="geometry" />
        </mxCell>
        <mxCell id="lb5H_JjfW28el9cgxgro-96" style="edgeStyle=orthogonalEdgeStyle;rounded=0;orthogonalLoop=1;jettySize=auto;html=1;" edge="1" parent="1" source="lb5H_JjfW28el9cgxgro-31" target="lb5H_JjfW28el9cgxgro-95">
          <mxGeometry relative="1" as="geometry" />
        </mxCell>
        <mxCell id="lb5H_JjfW28el9cgxgro-31" value="Build Report via PowerBI Editor online" style="whiteSpace=wrap;html=1;rounded=0;" vertex="1" parent="1">
          <mxGeometry x="1098.255" y="1110" width="120" height="60" as="geometry" />
        </mxCell>
        <mxCell id="lb5H_JjfW28el9cgxgro-52" style="edgeStyle=orthogonalEdgeStyle;rounded=0;orthogonalLoop=1;jettySize=auto;html=1;entryX=0.5;entryY=0;entryDx=0;entryDy=0;curved=1;dashed=1;" edge="1" parent="1" source="lb5H_JjfW28el9cgxgro-39" target="lb5H_JjfW28el9cgxgro-44">
          <mxGeometry relative="1" as="geometry" />
        </mxCell>
        <mxCell id="lb5H_JjfW28el9cgxgro-39" value="Select one or multiple Schemas&amp;nbsp;" style="whiteSpace=wrap;html=1;rounded=0;" vertex="1" parent="1">
          <mxGeometry x="180" y="780" width="137.5" height="60" as="geometry" />
        </mxCell>
        <mxCell id="lb5H_JjfW28el9cgxgro-54" style="edgeStyle=orthogonalEdgeStyle;rounded=0;orthogonalLoop=1;jettySize=auto;html=1;dashed=1;" edge="1" parent="1" source="lb5H_JjfW28el9cgxgro-42">
          <mxGeometry relative="1" as="geometry">
            <mxPoint x="-10" y="810" as="targetPoint" />
          </mxGeometry>
        </mxCell>
        <mxCell id="lb5H_JjfW28el9cgxgro-42" value="Build a Sales Report" style="rounded=1;whiteSpace=wrap;html=1;" vertex="1" parent="1">
          <mxGeometry x="-190" y="780" width="120" height="60" as="geometry" />
        </mxCell>
        <mxCell id="lb5H_JjfW28el9cgxgro-53" style="edgeStyle=orthogonalEdgeStyle;rounded=0;orthogonalLoop=1;jettySize=auto;html=1;entryX=1;entryY=0.5;entryDx=0;entryDy=0;exitX=0.5;exitY=1;exitDx=0;exitDy=0;curved=1;dashed=1;" edge="1" parent="1" source="lb5H_JjfW28el9cgxgro-44" target="lb5H_JjfW28el9cgxgro-46">
          <mxGeometry relative="1" as="geometry" />
        </mxCell>
        <mxCell id="lb5H_JjfW28el9cgxgro-44" value="Make the relationship between multiple Schemas" style="whiteSpace=wrap;html=1;rounded=0;" vertex="1" parent="1">
          <mxGeometry x="350" y="880" width="137.5" height="60" as="geometry" />
        </mxCell>
        <mxCell id="lb5H_JjfW28el9cgxgro-60" style="edgeStyle=orthogonalEdgeStyle;rounded=0;orthogonalLoop=1;jettySize=auto;html=1;entryX=1;entryY=0.5;entryDx=0;entryDy=0;dashed=1;" edge="1" parent="1" source="lb5H_JjfW28el9cgxgro-46" target="lb5H_JjfW28el9cgxgro-50">
          <mxGeometry relative="1" as="geometry" />
        </mxCell>
        <mxCell id="lb5H_JjfW28el9cgxgro-46" value="Select DataSets that filter by Schemas of DataModel" style="whiteSpace=wrap;html=1;rounded=0;" vertex="1" parent="1">
          <mxGeometry x="186.7500000000001" y="970" width="130.75" height="60" as="geometry" />
        </mxCell>
        <mxCell id="lb5H_JjfW28el9cgxgro-55" style="edgeStyle=orthogonalEdgeStyle;rounded=0;orthogonalLoop=1;jettySize=auto;html=1;entryX=0;entryY=0.5;entryDx=0;entryDy=0;dashed=1;" edge="1" parent="1" source="lb5H_JjfW28el9cgxgro-48" target="lb5H_JjfW28el9cgxgro-39">
          <mxGeometry relative="1" as="geometry" />
        </mxCell>
        <mxCell id="lb5H_JjfW28el9cgxgro-48" value="Make a DataModel that include multiple Schemas" style="rounded=0;whiteSpace=wrap;html=1;" vertex="1" parent="1">
          <mxGeometry x="-9.990000000000009" y="780" width="120" height="60" as="geometry" />
        </mxCell>
        <mxCell id="lb5H_JjfW28el9cgxgro-61" style="edgeStyle=orthogonalEdgeStyle;rounded=0;orthogonalLoop=1;jettySize=auto;html=1;entryX=1;entryY=0.5;entryDx=0;entryDy=0;dashed=1;" edge="1" parent="1" source="lb5H_JjfW28el9cgxgro-50" target="lb5H_JjfW28el9cgxgro-51">
          <mxGeometry relative="1" as="geometry" />
        </mxCell>
        <mxCell id="lb5H_JjfW28el9cgxgro-50" value="Build Report via PowerBI Editor online" style="whiteSpace=wrap;html=1;rounded=0;" vertex="1" parent="1">
          <mxGeometry x="-9.99499999999989" y="970" width="120" height="60" as="geometry" />
        </mxCell>
        <mxCell id="lb5H_JjfW28el9cgxgro-51" value="Done" style="rounded=1;whiteSpace=wrap;html=1;" vertex="1" parent="1">
          <mxGeometry x="-190" y="970" width="120" height="60" as="geometry" />
        </mxCell>
        <mxCell id="lb5H_JjfW28el9cgxgro-62" style="edgeStyle=orthogonalEdgeStyle;rounded=0;orthogonalLoop=1;jettySize=auto;html=1;" edge="1" parent="1" source="lb5H_JjfW28el9cgxgro-63" target="lb5H_JjfW28el9cgxgro-75">
          <mxGeometry relative="1" as="geometry" />
        </mxCell>
        <mxCell id="lb5H_JjfW28el9cgxgro-63" value="Build a Datasource" style="whiteSpace=wrap;html=1;rounded=0;" vertex="1" parent="1">
          <mxGeometry x="1352.35" y="1540" width="150" height="60" as="geometry" />
        </mxCell>
        <mxCell id="lb5H_JjfW28el9cgxgro-64" value="" style="edgeStyle=orthogonalEdgeStyle;rounded=0;orthogonalLoop=1;jettySize=auto;html=1;" edge="1" parent="1" source="lb5H_JjfW28el9cgxgro-66" target="lb5H_JjfW28el9cgxgro-71">
          <mxGeometry relative="1" as="geometry" />
        </mxCell>
        <mxCell id="lb5H_JjfW28el9cgxgro-65" value="Report editor" style="edgeLabel;html=1;align=center;verticalAlign=middle;resizable=0;points=[];" vertex="1" connectable="0" parent="lb5H_JjfW28el9cgxgro-64">
          <mxGeometry x="-0.1293" y="-2" relative="1" as="geometry">
            <mxPoint x="15" y="-2" as="offset" />
          </mxGeometry>
        </mxCell>
        <mxCell id="lb5H_JjfW28el9cgxgro-66" value="Build a Sales Report Template via Report editor online" style="whiteSpace=wrap;html=1;rounded=0;" vertex="1" parent="1">
          <mxGeometry x="1059.1" y="1745" width="135" height="60" as="geometry" />
        </mxCell>
        <mxCell id="lb5H_JjfW28el9cgxgro-67" value="Save the Report ID, Name" style="whiteSpace=wrap;html=1;rounded=0;" vertex="1" parent="1">
          <mxGeometry x="1064.85" y="1835" width="120" height="60" as="geometry" />
        </mxCell>
        <mxCell id="lb5H_JjfW28el9cgxgro-68" style="edgeStyle=orthogonalEdgeStyle;rounded=0;orthogonalLoop=1;jettySize=auto;html=1;entryX=0.5;entryY=0;entryDx=0;entryDy=0;" edge="1" parent="1" source="lb5H_JjfW28el9cgxgro-69" target="lb5H_JjfW28el9cgxgro-66">
          <mxGeometry relative="1" as="geometry" />
        </mxCell>
        <mxCell id="lb5H_JjfW28el9cgxgro-69" value="Save the new Semantic Model info ID, Name" style="whiteSpace=wrap;html=1;rounded=0;" vertex="1" parent="1">
          <mxGeometry x="1064.85" y="1637.5" width="120" height="60" as="geometry" />
        </mxCell>
        <mxCell id="lb5H_JjfW28el9cgxgro-70" style="edgeStyle=orthogonalEdgeStyle;rounded=0;orthogonalLoop=1;jettySize=auto;html=1;entryX=1;entryY=0.5;entryDx=0;entryDy=0;" edge="1" parent="1" source="lb5H_JjfW28el9cgxgro-71" target="lb5H_JjfW28el9cgxgro-67">
          <mxGeometry relative="1" as="geometry">
            <Array as="points">
              <mxPoint x="1422.85" y="1865" />
            </Array>
          </mxGeometry>
        </mxCell>
        <mxCell id="lb5H_JjfW28el9cgxgro-71" value="Save Sales Report" style="whiteSpace=wrap;html=1;rounded=0;" vertex="1" parent="1">
          <mxGeometry x="1362.35" y="1745" width="120" height="60" as="geometry" />
        </mxCell>
        <mxCell id="lb5H_JjfW28el9cgxgro-72" style="edgeStyle=orthogonalEdgeStyle;rounded=0;orthogonalLoop=1;jettySize=auto;html=1;" edge="1" parent="1" source="lb5H_JjfW28el9cgxgro-73" target="lb5H_JjfW28el9cgxgro-63">
          <mxGeometry relative="1" as="geometry" />
        </mxCell>
        <mxCell id="lb5H_JjfW28el9cgxgro-73" value="Get DataSets" style="whiteSpace=wrap;html=1;rounded=0;" vertex="1" parent="1">
          <mxGeometry x="1061.6" y="1540" width="137.5" height="60" as="geometry" />
        </mxCell>
        <mxCell id="lb5H_JjfW28el9cgxgro-74" style="edgeStyle=orthogonalEdgeStyle;rounded=0;orthogonalLoop=1;jettySize=auto;html=1;" edge="1" parent="1" source="lb5H_JjfW28el9cgxgro-75" target="lb5H_JjfW28el9cgxgro-69">
          <mxGeometry relative="1" as="geometry" />
        </mxCell>
        <mxCell id="lb5H_JjfW28el9cgxgro-75" value="Build a Semantic Model with the Sales Schema" style="whiteSpace=wrap;html=1;rounded=0;" vertex="1" parent="1">
          <mxGeometry x="1352.35" y="1637.5" width="150" height="60" as="geometry" />
        </mxCell>
        <mxCell id="lb5H_JjfW28el9cgxgro-81" value="" style="edgeStyle=orthogonalEdgeStyle;rounded=0;orthogonalLoop=1;jettySize=auto;html=1;" edge="1" parent="1" source="lb5H_JjfW28el9cgxgro-77" target="lb5H_JjfW28el9cgxgro-80">
          <mxGeometry relative="1" as="geometry" />
        </mxCell>
        <mxCell id="lb5H_JjfW28el9cgxgro-77" value="Build the Semantic Model" style="whiteSpace=wrap;html=1;rounded=0;" vertex="1" parent="1">
          <mxGeometry x="1098.255" y="920" width="120" height="60" as="geometry" />
        </mxCell>
        <mxCell id="lb5H_JjfW28el9cgxgro-83" value="" style="edgeStyle=orthogonalEdgeStyle;rounded=0;orthogonalLoop=1;jettySize=auto;html=1;" edge="1" parent="1" source="lb5H_JjfW28el9cgxgro-80" target="lb5H_JjfW28el9cgxgro-82">
          <mxGeometry relative="1" as="geometry" />
        </mxCell>
        <mxCell id="lb5H_JjfW28el9cgxgro-80" value="Create the Datasource and make the connection with Databricks" style="whiteSpace=wrap;html=1;rounded=0;" vertex="1" parent="1">
          <mxGeometry x="1390.005" y="920" width="120" height="60" as="geometry" />
        </mxCell>
        <mxCell id="lb5H_JjfW28el9cgxgro-94" style="edgeStyle=orthogonalEdgeStyle;rounded=0;orthogonalLoop=1;jettySize=auto;html=1;entryX=1;entryY=0.5;entryDx=0;entryDy=0;" edge="1" parent="1" source="lb5H_JjfW28el9cgxgro-82" target="lb5H_JjfW28el9cgxgro-93">
          <mxGeometry relative="1" as="geometry" />
        </mxCell>
        <mxCell id="lb5H_JjfW28el9cgxgro-82" value="Save the Semantic Model" style="whiteSpace=wrap;html=1;rounded=0;" vertex="1" parent="1">
          <mxGeometry x="1388.265" y="1020" width="120" height="60" as="geometry" />
        </mxCell>
        <mxCell id="lb5H_JjfW28el9cgxgro-84" value="" style="edgeStyle=orthogonalEdgeStyle;rounded=0;orthogonalLoop=1;jettySize=auto;html=1;" edge="1" parent="1" source="lb5H_JjfW28el9cgxgro-86">
          <mxGeometry relative="1" as="geometry">
            <mxPoint x="1792.34" y="2027.5" as="targetPoint" />
          </mxGeometry>
        </mxCell>
        <mxCell id="lb5H_JjfW28el9cgxgro-85" value="Report editor" style="edgeLabel;html=1;align=center;verticalAlign=middle;resizable=0;points=[];" vertex="1" connectable="0" parent="lb5H_JjfW28el9cgxgro-84">
          <mxGeometry x="-0.1293" y="-2" relative="1" as="geometry">
            <mxPoint x="15" y="-2" as="offset" />
          </mxGeometry>
        </mxCell>
        <mxCell id="lb5H_JjfW28el9cgxgro-86" value="Build a Sales Report Template via Report editor online" style="whiteSpace=wrap;html=1;rounded=0;" vertex="1" parent="1">
          <mxGeometry x="1489.09" y="1997.5" width="135" height="60" as="geometry" />
        </mxCell>
        <mxCell id="lb5H_JjfW28el9cgxgro-87" value="Save the Report ID, Name" style="whiteSpace=wrap;html=1;rounded=0;" vertex="1" parent="1">
          <mxGeometry x="1494.84" y="2087.5" width="120" height="60" as="geometry" />
        </mxCell>
        <mxCell id="lb5H_JjfW28el9cgxgro-88" style="edgeStyle=orthogonalEdgeStyle;rounded=0;orthogonalLoop=1;jettySize=auto;html=1;entryX=0.5;entryY=0;entryDx=0;entryDy=0;" edge="1" parent="1" source="lb5H_JjfW28el9cgxgro-89" target="lb5H_JjfW28el9cgxgro-86">
          <mxGeometry relative="1" as="geometry" />
        </mxCell>
        <mxCell id="lb5H_JjfW28el9cgxgro-89" value="Save the new Semantic Model info ID, Name" style="whiteSpace=wrap;html=1;rounded=0;" vertex="1" parent="1">
          <mxGeometry x="1494.84" y="1890" width="120" height="60" as="geometry" />
        </mxCell>
        <mxCell id="lb5H_JjfW28el9cgxgro-90" style="edgeStyle=orthogonalEdgeStyle;rounded=0;orthogonalLoop=1;jettySize=auto;html=1;entryX=1;entryY=0.5;entryDx=0;entryDy=0;" edge="1" parent="1" target="lb5H_JjfW28el9cgxgro-87">
          <mxGeometry relative="1" as="geometry">
            <Array as="points">
              <mxPoint x="1852.84" y="2117.5" />
            </Array>
            <mxPoint x="1852.39" y="2057.5" as="sourcePoint" />
          </mxGeometry>
        </mxCell>
        <mxCell id="lb5H_JjfW28el9cgxgro-91" value="Save Sales Report" style="whiteSpace=wrap;html=1;rounded=0;" vertex="1" parent="1">
          <mxGeometry x="1813.25" y="1697.5" width="120" height="60" as="geometry" />
        </mxCell>
        <mxCell id="lb5H_JjfW28el9cgxgro-92" style="edgeStyle=orthogonalEdgeStyle;rounded=0;orthogonalLoop=1;jettySize=auto;html=1;" edge="1" parent="1" target="lb5H_JjfW28el9cgxgro-89">
          <mxGeometry relative="1" as="geometry">
            <mxPoint x="1782.08" y="1920.5" as="sourcePoint" />
          </mxGeometry>
        </mxCell>
        <mxCell id="lb5H_JjfW28el9cgxgro-93" value="Save the new Semantic Model info ID, Name" style="whiteSpace=wrap;html=1;rounded=0;" vertex="1" parent="1">
          <mxGeometry x="1098.26" y="1020" width="120" height="60" as="geometry" />
        </mxCell>
        <mxCell id="lb5H_JjfW28el9cgxgro-95" value="Save report info" style="whiteSpace=wrap;html=1;rounded=0;" vertex="1" parent="1">
          <mxGeometry x="1100" y="1200" width="120" height="60" as="geometry" />
        </mxCell>
      </root>
    </mxGraphModel>
  </diagram>
</mxfile>
